<svg xmlns="http://www.w3.org/2000/svg" width="451" height="72" viewBox="25 218 451 72"><g id="letters text"><path d="M 25,256.622 C 25,230.557 25.265,224.025 26.359,223.117 C 27.106,222.497 30.144,221.154 33.109,220.134 C 33.109,220.134 38.500,218.279 38.500,218.279 C 38.500,218.279 38.142,230.232 38.142,230.232 C 37.942,236.920 38.199,242.599 38.727,243.127 C 39.318,243.718 41.318,243.130 44.085,241.548 C 54.594,235.541 67.036,240.648 70.527,252.404 C 71.553,255.858 72,262.163 72,273.181 C 72,273.181 72,289 72,289 C 72,289 65.250,288.998 65.250,288.998 C 65.250,288.998 58.500,288.996 58.500,288.996 C 58.500,288.996 58.500,272.602 58.500,272.602 C 58.500,257.938 58.301,255.989 56.613,254.124 C 53.666,250.869 48.504,250.357 43.438,252.818 C 39.557,254.703 39.084,255.328 38.600,259.204 C 38.305,261.567 38.161,269.237 38.281,276.250 C 38.281,276.250 38.500,289 38.500,289 C 38.500,289 31.750,289 31.750,289 C 31.750,289 25,289 25,289 C 25,289 25,256.622 25,256.622" fill="#141E21" />
  <path d="M 97.723,289.972 C 83.516,287.551 73.168,273.766 75.922,260.926 C 77.393,254.065 79.091,251.092 84.252,246.335 C 92.399,238.825 105.935,236.865 115.598,241.795 C 120.373,244.231 126.626,250.861 128.597,255.578 C 130.755,260.742 130.405,270.762 127.900,275.515 C 121.889,286.922 110.852,292.209 97.723,289.972M 107.186,278.965 C 115.172,276.747 118.946,267.188 115.190,258.697 C 111.826,251.092 104.006,248.080 97.020,251.698 C 85.658,257.582 86.719,275.399 98.643,278.972 C 102.531,280.137 102.968,280.137 107.186,278.965" fill="#141E21" />
  <path d="M 134,264.450 C 134,264.450 134,239.900 134,239.900 C 134,239.900 139.750,240.200 139.750,240.200 C 145.193,240.484 145.516,240.647 145.816,243.250 C 146.206,246.644 146.837,246.664 149.953,243.381 C 151.302,241.959 153.469,240.392 154.768,239.898 C 160.980,237.536 170.610,239.949 173.681,244.636 C 173.681,244.636 175.213,246.974 175.213,246.974 C 175.213,246.974 179.269,243.502 179.269,243.502 C 187.805,236.195 199.447,237.729 205.750,246.990 C 207.892,250.137 208,251.225 208,269.648 C 208,269.648 208,289 208,289 C 208,289 201.500,289 201.500,289 C 201.500,289 195,289 195,289 C 195,289 195,272.155 195,272.155 C 195,256.638 194.844,255.169 193.021,253.519 C 190.502,251.239 183.918,251.169 180.533,253.387 C 180.533,253.387 178,255.046 178,255.046 C 178,255.046 178,272.023 178,272.023 C 178,272.023 178,289 178,289 C 178,289 171,289 171,289 C 171,289 164,289 164,289 C 164,289 164,272 164,272 C 164,256.333 163.843,254.843 162,253 C 159.429,250.429 154.456,250.425 150.250,252.989 C 150.250,252.989 147,254.971 147,254.971 C 147,254.971 147,271.985 147,271.985 C 147,271.985 147,289 147,289 C 147,289 140.500,289 140.500,289 C 140.500,289 134,289 134,289 C 134,289 134,264.450 134,264.450" fill="#141E21" />
  <path d="M 226.399,288.094 C 221.252,285.756 215.456,280.029 213.499,275.344 C 211.554,270.688 211.567,259.281 213.523,254.600 C 215.659,249.488 221.770,243.020 226.500,240.866 C 234.757,237.106 246.052,239.052 252.315,245.315 C 257.522,250.522 259.951,256.200 259.978,263.226 C 259.978,263.226 260,268.953 260,268.953 C 260,268.953 242.750,269.226 242.750,269.226 C 226.143,269.489 225.512,269.575 225.799,271.500 C 225.963,272.600 227.644,274.962 229.534,276.750 C 232.469,279.526 233.701,280 237.975,280 C 240.727,280 245.346,279.101 248.239,278.001 C 251.132,276.901 253.754,276.001 254.065,276.001 C 254.848,276 258,282.761 258,284.442 C 258,285.235 255.379,286.701 251.806,287.908 C 243.726,290.637 232.184,290.721 226.399,288.094M 247.816,258.716 C 248.009,257.715 246.655,255.455 244.678,253.478 C 241.694,250.494 240.532,250 236.500,250 C 232.488,250 231.302,250.498 228.400,253.400 C 222.754,259.046 223.522,259.877 234.750,260.263 C 247.674,260.708 247.427,260.737 247.816,258.716" fill="#141E21" />
  <path d="M 272.031,281.792 C 270.780,277.781 267.362,267.104 264.434,258.065 C 261.506,249.026 259.338,241.263 259.615,240.815 C 260.428,239.499 270.648,239.866 271.755,241.250 C 272.965,242.763 277.266,256.362 279.036,264.270 C 279.741,267.422 280.683,270 281.129,270 C 281.763,270 287.607,252.655 290.647,241.750 C 291.034,240.361 292.243,240 296.505,240 C 296.505,240 301.875,240 301.875,240 C 301.875,240 306.483,254.500 306.483,254.500 C 309.018,262.475 311.409,268.999 311.796,268.999 C 312.183,268.999 314.262,262.474 316.416,254.499 C 316.416,254.499 320.333,240 320.333,240 C 320.333,240 326.666,240 326.666,240 C 330.150,240 333,240.375 333,240.833 C 333,241.291 329.850,252.166 326,265 C 322.150,277.834 319,288.484 319,288.667 C 319,288.850 316.140,289 312.646,289 C 312.646,289 306.293,289 306.293,289 C 306.293,289 302.527,277.250 302.527,277.250 C 297.224,260.706 297.124,260.476 295.812,261.788 C 295.199,262.401 293.061,268.661 291.060,275.701 C 291.060,275.701 287.421,288.500 287.421,288.500 C 287.421,288.500 280.863,288.792 280.863,288.792 C 280.863,288.792 274.305,289.084 274.305,289.084 C 274.305,289.084 272.031,281.792 272.031,281.792" fill="#141E21" />
  <path d="M 353.753,289.938 C 345.795,288.645 337.588,282.045 334.375,274.355 C 332.690,270.322 332.596,262.080 334.176,256.807 C 335.630,251.953 342.028,244.531 346.872,242.080 C 351.757,239.608 356.648,238.620 357.464,239.941 C 358.272,241.248 363.669,241.345 364.459,240.067 C 365.333,238.652 373.109,241.641 377.090,244.922 C 379.003,246.499 381.878,250.197 383.480,253.140 C 385.927,257.635 386.376,259.565 386.289,265.200 C 386.027,282.206 371.967,292.897 353.753,289.938M 371.418,279.393 C 372.692,278.904 373,277.099 373,270.112 C 373,270.112 373,261.437 373,261.437 C 373,261.437 367.221,255.719 367.221,255.719 C 364.043,252.574 360.766,250 359.940,250 C 359.114,250 355.752,252.715 352.469,256.032 C 352.469,256.032 346.500,262.063 346.500,262.063 C 346.500,262.063 346.500,270.068 346.500,270.068 C 346.500,276.095 346.871,278.307 348,279.021 C 349.646,280.061 368.880,280.367 371.418,279.393" fill="#141E21" />
  <path d="M 391.232,264.750 C 391.232,264.750 391.500,240.500 391.500,240.500 C 391.500,240.500 397.750,240.202 397.750,240.202 C 397.750,240.202 404,239.905 404,239.905 C 404,239.905 404,244.030 404,244.030 C 404,244.030 404,248.156 404,248.156 C 404,248.156 408.205,244.557 408.205,244.557 C 412.857,240.575 417.976,238.645 422.518,239.161 C 425.459,239.495 425.504,239.592 425.793,246.135 C 425.793,246.135 426.086,252.769 426.086,252.769 C 426.086,252.769 419.183,253.160 419.183,253.160 C 413.749,253.467 411.397,254.133 408.139,256.289 C 408.139,256.289 404,259.028 404,259.028 C 404,259.028 404,274.014 404,274.014 C 404,274.014 404,289 404,289 C 404,289 397.482,289 397.482,289 C 397.482,289 390.964,289 390.964,289 C 390.964,289 391.232,264.750 391.232,264.750" fill="#141E21" />
  <path d="M 431.709,255.766 C 431.709,255.766 431.918,222.533 431.918,222.533 C 431.918,222.533 436.709,220.844 436.709,220.844 C 439.344,219.915 442.062,219.120 442.750,219.077 C 443.709,219.018 444,223.425 444,238 C 444,248.853 444.393,257 444.917,257 C 445.421,257 448.820,253.175 452.471,248.500 C 452.471,248.500 459.109,240 459.109,240 C 459.109,240 466.554,240 466.554,240 C 470.649,240 474,240.277 474,240.616 C 474,241.201 467.566,249.663 460.326,258.601 C 460.326,258.601 457.004,262.702 457.004,262.702 C 457.004,262.702 466.505,275.851 466.505,275.851 C 466.505,275.851 476.005,289 476.005,289 C 476.005,289 468.025,289 468.025,289 C 468.025,289 460.045,289 460.045,289 C 460.045,289 453,278.500 453,278.500 C 449.125,272.725 445.516,268 444.978,268 C 444.403,268 444,272.327 444,278.500 C 444,278.500 444,289 444,289 C 444,289 437.750,289 437.750,289 C 437.750,289 431.500,289 431.500,289 C 431.500,289 431.709,255.766 431.709,255.766" fill="#141E21" />
</g></svg>
